<?xml version="1.0" encoding="UTF-8"?>
<svg width="1544px" height="811px" viewBox="0 0 1544 811" version="1.1" xmlns="http://www.w3.org/2000/svg" xmlns:xlink="http://www.w3.org/1999/xlink">
    <!-- Generator: Sketch 50.2 (55047) - http://www.bohemiancoding.com/sketch -->
    <title>Untitled</title>
    <desc>Created with Sketch.</desc>
    <defs></defs>
    <g id="Page-1" stroke="none" stroke-width="1" fill="none" fill-rule="evenodd">
        <rect id="Rectangle" fill="#D8D8D8" x="0" y="295" width="139" height="90"></rect>
        <rect id="Rectangle-Copy" fill="#D8D8D8" x="213" y="295" width="154" height="90"></rect>
        <rect id="Rectangle-Copy-2" fill="#D8D8D8" x="435" y="293" width="139" height="90"></rect>
        <rect id="Rectangle-Copy-3" fill="#D8D8D8" x="648" y="293" width="139" height="90"></rect>
        <rect id="Rectangle-Copy-4" fill="#D8D8D8" x="861" y="293" width="139" height="90"></rect>
        <rect id="Rectangle-Copy-12" fill="#D8D8D8" x="435" y="101" width="139" height="90"></rect>
        <rect id="Rectangle-Copy-5" fill="#D8D8D8" x="1094" y="145" width="214" height="90"></rect>
        <rect id="Rectangle-Copy-13" fill="#D8D8D8" x="1094" y="580" width="214" height="90"></rect>
        <rect id="Rectangle-Copy-14" fill="#D8D8D8" x="1094" y="721" width="214" height="90"></rect>
        <rect id="Rectangle-Copy-6" fill="#D8D8D8" x="1132" y="0" width="139" height="90"></rect>
        <rect id="Rectangle-Copy-7" fill="#D8D8D8" x="1114" y="299" width="174" height="76"></rect>
        <rect id="Rectangle-Copy-8" fill="#D8D8D8" x="1078" y="434" width="246" height="90"></rect>
        <rect id="Rectangle-Copy-11" fill="#D8D8D8" x="1405" y="291" width="139" height="90"></rect>
        <text id="input-image" font-family="Roboto-Medium, Roboto" font-size="32" font-weight="400" fill="#5E503E">
            <tspan x="33.296875" y="328">input </tspan>
            <tspan x="25.1796875" y="366">image</tspan>
        </text>
        <text id="Text-Blocks" font-family="Roboto-Medium, Roboto" font-size="32" font-weight="400" fill="#5E503E">
            <tspan x="473.53125" y="329">Text</tspan>
            <tspan x="456.226562" y="367">Blocks</tspan>
        </text>
        <text id="Mask-Image" font-family="Roboto-Medium, Roboto" font-size="32" font-weight="400" fill="#5E503E">
            <tspan x="465.726562" y="140">Mask</tspan>
            <tspan x="460.25" y="178">Image</tspan>
        </text>
        <text id="Detect-Bounding-Rect" font-family="Roboto-Medium, Roboto" font-size="32" font-weight="400" fill="#5E503E">
            <tspan x="1082.29688" y="475">Detect Bounding </tspan>
            <tspan x="1129.4375" y="513">Rectangle</tspan>
        </text>
        <text id="Translate" font-family="Roboto-Medium, Roboto" font-size="32" font-weight="400" fill="#5E503E">
            <tspan x="1134.44531" y="345">Translate</tspan>
        </text>
        <text id="SIFT-OCR" font-family="Roboto-Medium, Roboto" font-size="32" font-weight="400" fill="#5E503E">
            <tspan x="685.171875" y="329">SIFT</tspan>
            <tspan x="686.523438" y="367">OCR</tspan>
        </text>
        <text id="Grouped-Text" font-family="Roboto-Medium, Roboto" font-size="32" font-weight="400" fill="#5E503E">
            <tspan x="870.140625" y="329">Grouped</tspan>
            <tspan x="900.03125" y="367">Text</tspan>
        </text>
        <text id="Adaptive-Inpaint" font-family="Roboto-Medium, Roboto" font-size="32" font-weight="400" fill="#5E503E">
            <tspan x="1411.35156" y="327">Adaptive</tspan>
            <tspan x="1425.11719" y="365">Inpaint</tspan>
        </text>
        <text id="Reconstruct-Sentence" font-family="Roboto-Medium, Roboto" font-size="32" font-weight="400" fill="#5E503E">
            <tspan x="1114.25781" y="185">Reconstruct</tspan>
            <tspan x="1125.83594" y="223">Sentences</tspan>
        </text>
        <text id="Detect-Font-Size" font-family="Roboto-Medium, Roboto" font-size="32" font-weight="400" fill="#5E503E">
            <tspan x="1154.85938" y="620">Detect </tspan>
            <tspan x="1135.3125" y="658">Font Size</tspan>
        </text>
        <text id="Detect-Line-Spacing" font-family="Roboto-Medium, Roboto" font-size="32" font-weight="400" fill="#5E503E">
            <tspan x="1154.35938" y="761">Detect </tspan>
            <tspan x="1109.03906" y="799">Line Spacing</tspan>
        </text>
        <text id="Detect-Lines" font-family="Roboto-Medium, Roboto" font-size="32" font-weight="400" fill="#5E503E">
            <tspan x="1154.35938" y="44">Detect</tspan>
            <tspan x="1162.51562" y="82">Lines</tspan>
        </text>
        <text id="Tesseract-OCR" font-family="Roboto-Medium, Roboto" font-size="32" font-weight="400" fill="#5E503E">
            <tspan x="217.054687" y="331">Tesseract</tspan>
            <tspan x="256.023438" y="369">OCR</tspan>
        </text>
        <path d="M141.5,339.5 L211.5,339.5" id="Line" stroke="#979797" stroke-width="3" stroke-linecap="square"></path>
        <path id="Line-decoration-1" d="M211.5,339.5 L200.7,336.5 L200.7,342.5 L211.5,339.5 Z" stroke="#979797" stroke-width="3" stroke-linecap="square"></path>
        <path d="M367.5,339.5 L437.5,339.5" id="Line-Copy" stroke="#979797" stroke-width="3" stroke-linecap="square"></path>
        <path id="Line-Copy-decoration-1" d="M437.5,339.5 L426.7,336.5 L426.7,342.5 L437.5,339.5 Z" stroke="#979797" stroke-width="3" stroke-linecap="square"></path>
        <path d="M577.5,338.5 L647.5,338.5" id="Line-Copy-2" stroke="#979797" stroke-width="3" stroke-linecap="square"></path>
        <path id="Line-Copy-2-decoration-1" d="M647.5,338.5 L636.7,335.5 L636.7,341.5 L647.5,338.5 Z" stroke="#979797" stroke-width="3" stroke-linecap="square"></path>
        <path d="M787.5,338.5 L857.5,338.5" id="Line-Copy-3" stroke="#979797" stroke-width="3" stroke-linecap="square"></path>
        <path id="Line-Copy-3-decoration-1" d="M857.5,338.5 L846.7,335.5 L846.7,341.5 L857.5,338.5 Z" stroke="#979797" stroke-width="3" stroke-linecap="square"></path>
        <path d="M1003.5,341.5 L1036.5,341.5" id="Line-Copy-5" stroke="#979797" stroke-width="3" stroke-linecap="square"></path>
        <path id="Line-Copy-5-decoration-1" d="M1036.5,341.5 L1025.7,338.5 L1025.7,344.5 L1036.5,341.5 Z" stroke="#979797" stroke-width="3" stroke-linecap="square"></path>
        <path d="M1352.5,337.5 L1404.5,337.5" id="Line-Copy-4" stroke="#979797" stroke-width="3" stroke-linecap="square"></path>
        <path id="Line-Copy-4-decoration-1" d="M1404.5,337.5 L1393.7,334.5 L1393.7,340.5 L1404.5,337.5 Z" stroke="#979797" stroke-width="3" stroke-linecap="square"></path>
        <path d="M500.5,293.5 L500.5,187.5" id="Line-2" stroke="#979797" stroke-width="2" stroke-linecap="square"></path>
        <path id="Line-2-decoration-1" d="M500.5,187.5 L497.5,198.3 L503.5,198.3 L500.5,187.5 Z" stroke="#979797" stroke-width="2" stroke-linecap="square"></path>
        <path d="M496.5,99.5 L496.5,35.5" id="Line-3" stroke="#979797" stroke-width="3" stroke-linecap="square"></path>
        <path d="M290.5,35.5 L494.5,35.5" id="Line-4" stroke="#979797" stroke-width="3" stroke-linecap="square"></path>
        <path d="M288.5,36.5 L288.5,296.5" id="Line-5" stroke="#979797" stroke-width="3" stroke-linecap="square"></path>
        <path id="Line-5-decoration-1" d="M288.5,296.5 L291.5,285.7 L285.5,285.7 L288.5,296.5 Z" stroke="#979797" stroke-width="3" stroke-linecap="square"></path>
        <path d="M1199.5,91.4474048 L1199.5,140.5" id="Line-5-Copy" stroke="#979797" stroke-width="3" stroke-linecap="square"></path>
        <path id="Line-5-Copy-decoration-1" d="M1199.5,140.5 L1202.5,129.7 L1196.5,129.7 L1199.5,140.5 Z" stroke="#979797" stroke-width="3" stroke-linecap="square"></path>
        <path d="M1196.5,239.447405 L1196.5,295.5" id="Line-5-Copy-2" stroke="#979797" stroke-width="3" stroke-linecap="square"></path>
        <path id="Line-5-Copy-2-decoration-1" d="M1196.5,295.5 L1199.5,284.7 L1193.5,284.7 L1196.5,295.5 Z" stroke="#979797" stroke-width="3" stroke-linecap="square"></path>
        <path d="M1039.5,44.5 L1131.63577,44.5" id="Line-7" stroke="#979797" stroke-width="3" stroke-linecap="square"></path>
        <path id="Line-7-decoration-1" d="M1131.63577,44.5 L1120.83577,41.5 L1120.83577,47.5 L1131.63577,44.5 Z" stroke="#979797" stroke-width="3" stroke-linecap="square"></path>
        <path d="M1039.5,479.5 L1078.63577,479.5" id="Line-7-Copy" stroke="#979797" stroke-width="3" stroke-linecap="square"></path>
        <path id="Line-7-Copy-decoration-1" d="M1078.63577,479.5 L1067.83577,476.5 L1067.83577,482.5 L1078.63577,479.5 Z" stroke="#979797" stroke-width="3" stroke-linecap="square"></path>
        <path d="M1038.5,626.5 L1091.5,626.5" id="Line-7-Copy-2" stroke="#979797" stroke-width="3" stroke-linecap="square"></path>
        <path id="Line-7-Copy-2-decoration-1" d="M1091.5,626.5 L1080.7,623.5 L1080.7,629.5 L1091.5,626.5 Z" stroke="#979797" stroke-width="3" stroke-linecap="square"></path>
        <path d="M1041.5,764.5 L1094.5,764.5" id="Line-7-Copy-3" stroke="#979797" stroke-width="3" stroke-linecap="square"></path>
        <path id="Line-7-Copy-3-decoration-1" d="M1094.5,764.5 L1083.7,761.5 L1083.7,767.5 L1094.5,764.5 Z" stroke="#979797" stroke-width="3" stroke-linecap="square"></path>
        <path d="M1039.5,44.5 L1039.5,762.5" id="Line-6" stroke="#979797" stroke-width="3" stroke-linecap="square"></path>
        <path d="M1288.5,337.5 L1355.52984,337.5" id="Line-8" stroke="#979797" stroke-width="3" stroke-linecap="square"></path>
        <path d="M1353.5,769.5 L1353.5,337.49537" id="Line-9" stroke="#979797" stroke-width="3" stroke-linecap="square"></path>
        <path d="M1323.5,480.5 L1351.57134,480.5" id="Line-10" stroke="#979797" stroke-width="3" stroke-linecap="square"></path>
        <path d="M1310.5,623.5 L1353.5,623.5" id="Line-10-Copy" stroke="#979797" stroke-width="3" stroke-linecap="square"></path>
        <path d="M1308.5,767.5 L1351.5,767.5" id="Line-10-Copy-2" stroke="#979797" stroke-width="3" stroke-linecap="square"></path>
    </g>
</svg>